<svg width="650" height="457" viewBox="0 0 650 457" fill="none" xmlns="http://www.w3.org/2000/svg">
<g clip-path="url(#clip0)">
<path d="M87.4271 363.524H109.681L164.522 342.065C164.522 342.065 203.467 326.169 200.288 356.371C197.108 386.573 191.545 427.108 191.545 427.108C191.545 427.108 174.059 419.16 164.522 421.544C154.984 423.929 161.343 373.062 161.343 373.062C161.343 373.062 83.4531 410.417 76.3 405.648C69.1469 400.88 67.5573 367.498 67.5573 367.498L87.4271 363.524Z" fill="#2F2E41"/>
<path opacity="0.1" d="M87.4271 363.524H109.681L164.522 342.065C164.522 342.065 203.467 326.169 200.288 356.371C197.108 386.573 191.545 427.108 191.545 427.108C191.545 427.108 174.059 419.16 164.522 421.544C154.984 423.929 161.343 373.062 161.343 373.062C161.343 373.062 83.4531 410.417 76.3 405.648C69.1469 400.88 67.5573 367.498 67.5573 367.498L87.4271 363.524Z" fill="black"/>
<path d="M122.489 293.832L149.421 332.528L212.209 384.984C212.209 384.984 270.229 398.495 262.281 408.033C254.333 417.57 205.851 398.495 205.851 398.495C205.851 398.495 133.525 346.039 131.141 342.065C128.756 338.091 102.528 300.736 102.528 300.736L122.489 293.832Z" fill="#A0616A"/>
<path opacity="0.1" d="M122.489 293.832L149.421 332.528L212.209 384.984C212.209 384.984 270.229 398.495 262.281 408.033C254.333 417.57 205.851 398.495 205.851 398.495C205.851 398.495 133.525 346.039 131.141 342.065C128.756 338.091 102.528 300.736 102.528 300.736L122.489 293.832Z" fill="black"/>
<path d="M106.502 262.586L123.988 296.762C123.988 296.762 120.014 313.452 113.655 315.042C107.297 316.632 80.274 294.377 80.274 294.377L106.502 262.586Z" fill="#D0CDE1"/>
<path opacity="0.1" d="M106.502 262.586L123.988 296.762C123.988 296.762 120.014 313.452 113.655 315.042C107.297 316.632 80.274 294.377 80.274 294.377L106.502 262.586Z" fill="black"/>
<path d="M319.817 345.829L324.982 367.135C325.039 367.373 325.03 367.621 324.956 367.854L301.526 441.072C301.433 441.362 301.244 441.612 300.99 441.779C300.735 441.946 300.431 442.021 300.128 441.991C299.825 441.961 299.542 441.828 299.325 441.615C299.108 441.401 298.971 441.12 298.937 440.817L295.695 412.294C295.674 412.105 295.693 411.913 295.752 411.732L317.258 345.731C317.348 345.455 317.525 345.217 317.763 345.051C318 344.885 318.285 344.802 318.575 344.813C318.864 344.824 319.142 344.929 319.366 345.113C319.59 345.296 319.749 345.548 319.817 345.829Z" fill="#2F2E41"/>
<path d="M317.917 347.629L322.685 365.909L302.021 432.671L297.252 412.007L317.917 347.629Z" fill="#F2F2F2"/>
<path d="M213.799 446.978C214.594 449.362 296.457 446.183 297.252 445.388C297.945 444.393 298.531 443.327 299.001 442.209C299.748 440.619 300.431 439.03 300.431 439.03L297.252 413.294L216.183 410.417C216.183 410.417 214.157 432.226 213.743 442.209C213.64 444.728 213.64 446.501 213.799 446.978Z" fill="#2F2E41"/>
<path opacity="0.1" d="M286.92 416.776L288.509 439.03H252.744V416.776H286.92Z" fill="black"/>
<path opacity="0.1" d="M240.822 423.928L241.035 423.886L240.027 433.466H220.158V423.928H240.822Z" fill="black"/>
<path opacity="0.1" d="M213.799 446.978C214.594 449.362 296.457 446.183 297.252 445.388C297.945 444.393 298.531 443.327 299.001 442.209H213.743C213.64 444.728 213.64 446.501 213.799 446.978Z" fill="black"/>
<path d="M118.424 251.459C138.177 251.459 154.19 235.446 154.19 215.693C154.19 195.94 138.177 179.927 118.424 179.927C98.6712 179.927 82.6584 195.94 82.6584 215.693C82.6584 235.446 98.6712 251.459 118.424 251.459Z" fill="#A0616A"/>
<path d="M116.04 247.485C116.04 247.485 104.118 268.149 101.733 279.276C99.349 290.404 65.9677 257.022 65.9677 257.022L61.5964 245.498C61.5964 245.498 92.9907 230.794 90.6063 218.872C88.2219 206.95 116.04 247.485 116.04 247.485Z" fill="#A0616A"/>
<path d="M122.398 309.479L154.984 352.397L232.874 410.417C232.874 410.417 289.304 422.339 276.588 431.082C263.871 439.824 227.31 423.134 227.31 423.134C227.31 423.134 148.626 381.01 131.935 363.524C115.245 346.039 84.2479 316.632 84.2479 316.632L122.398 309.479Z" fill="#A0616A"/>
<path d="M78.6844 376.241L88.2219 391.342L145.143 373.434C157.632 369.505 171.327 370.951 182.405 377.93C192.34 384.189 198.698 394.124 184.392 408.827C155.779 438.235 136.704 422.339 136.704 422.339C136.704 422.339 40.5344 467.642 24.6386 445.388C8.74272 423.134 7.94795 412.007 7.94795 412.007C7.94795 412.007 69.1469 373.857 78.6844 376.241Z" fill="#2F2E41"/>
<path d="M197.903 428.697C197.903 428.697 223.337 445.388 193.134 453.336C162.932 461.284 140.678 450.157 140.678 450.157C140.678 450.157 114.45 450.157 114.45 436.645C114.45 423.134 123.193 421.544 123.193 421.544L150.216 425.518C150.216 425.518 182.802 416.775 197.903 428.697Z" fill="#D0CDE1"/>
<path d="M147.764 206.696C150.199 207.781 152.612 209.066 155.259 209.381C157.906 209.696 160.919 208.772 162.172 206.419C162.848 205.148 162.925 203.654 162.957 202.214C163.053 197.85 162.737 193.132 159.971 189.754C158.211 187.605 155.642 186.25 153.82 184.152C152.514 182.65 151.646 180.828 150.71 179.071C147.167 172.416 141.92 166.02 134.629 164.102C131.584 163.301 128.391 163.34 125.243 163.384L106.881 163.643C103.91 163.685 100.892 163.734 98.0479 164.594C92.1378 166.381 87.8347 171.351 83.8936 176.104C80.9451 179.66 77.9888 183.252 75.7759 187.307C72.6033 193.224 70.9991 199.855 71.1161 206.568C71.0915 208.29 71.3138 210.006 71.7762 211.665C72.3171 213.186 72.9873 214.658 73.7794 216.065C77.2228 222.828 79.2674 231.276 75.3895 237.8C82.1258 235.049 88.791 231.441 93.2346 225.678C95.2225 223.101 96.7815 220.083 99.4308 218.191C102.08 216.3 106.397 216.136 108.096 218.912C108.681 220.035 108.982 221.284 108.973 222.55C109.097 224.634 109.094 226.798 109.977 228.689C110.861 230.581 112.965 232.107 114.975 231.541C118.435 230.566 118.104 225.255 120.769 222.842C122.793 221.01 125.916 221.36 128.516 220.529C131.546 219.56 133.82 216.935 135.115 214.029C136.1 211.821 136.085 206.042 137.949 204.846C140.285 203.346 145.598 205.731 147.764 206.696Z" fill="#2F2E41"/>
<path d="M58.7572 241.728C60.3662 241.298 62.0602 241.303 63.667 241.74C68.7689 243.11 80.2061 246.736 82.6583 252.254C85.8375 259.407 96.9646 270.534 96.9646 270.534C96.9646 270.534 112.066 285.635 108.886 295.967C105.707 306.299 93.7854 318.221 93.7854 318.221C93.7854 318.221 96.9646 367.498 81.0688 380.215C65.1729 392.932 58.8146 384.189 58.8146 396.111C58.8146 408.033 9.53751 445.388 -3.57628e-07 422.339C-3.57628e-07 422.339 4.76875 379.42 3.17917 364.319C1.61251 349.436 3.90601 256.577 58.7572 241.728Z" fill="#D0CDE1"/>
<path d="M84.248 261.791C84.248 261.791 132.73 297.557 123.988 312.658C123.988 312.658 94.5802 326.964 88.2219 326.169C81.8636 325.374 57.225 297.557 50.8667 295.172C44.5084 292.788 41.3292 249.869 84.248 261.791Z" fill="#D0CDE1"/>
<path d="M308.263 172.527C329.948 172.527 347.527 154.948 347.527 133.263C347.527 111.579 329.948 94 308.263 94C286.579 94 269 111.579 269 133.263C269 154.948 286.579 172.527 308.263 172.527Z" fill="#F2F2F2"/>
<path d="M625.153 92.4447H405.127V46.4041H625.153V92.4447ZM406.096 91.4754H624.184V47.3734H406.096V91.4754Z" fill="#3F3D56"/>
<path d="M609.16 55.6122H390.103V100.684H609.16V55.6122Z" fill="#6C63FF"/>
<path d="M251.627 12.6006C253.501 12.6006 255.02 11.0818 255.02 9.20812C255.02 7.33449 253.501 5.81561 251.627 5.81561C249.754 5.81561 248.235 7.33449 248.235 9.20812C248.235 11.0818 249.754 12.6006 251.627 12.6006Z" fill="#6C63FF"/>
<path d="M263.259 12.6006C265.132 12.6006 266.651 11.0818 266.651 9.20812C266.651 7.33449 265.132 5.81561 263.259 5.81561C261.385 5.81561 259.866 7.33449 259.866 9.20812C259.866 11.0818 261.385 12.6006 263.259 12.6006Z" fill="#6C63FF"/>
<path d="M274.89 12.6006C276.764 12.6006 278.283 11.0818 278.283 9.20812C278.283 7.33449 276.764 5.81561 274.89 5.81561C273.016 5.81561 271.498 7.33449 271.498 9.20812C271.498 11.0818 273.016 12.6006 274.89 12.6006Z" fill="#6C63FF"/>
<path d="M650 265.582H241.935V0H650V265.582ZM242.904 264.612H649.031V0.969277H242.904V264.612Z" fill="#3F3D56"/>
<path d="M649.515 14.7015H242.419V15.6708H649.515V14.7015Z" fill="#3F3D56"/>
<path d="M252.597 11.6313C251.83 11.6313 251.08 11.4039 250.443 10.9779C249.805 10.5519 249.308 9.94633 249.015 9.23788C248.721 8.52944 248.645 7.74988 248.794 6.9978C248.944 6.24571 249.313 5.55488 249.855 5.01265C250.397 4.47043 251.088 4.10117 251.84 3.95157C252.592 3.80198 253.372 3.87876 254.08 4.1722C254.789 4.46565 255.394 4.96259 255.82 5.60018C256.247 6.23777 256.474 6.98736 256.474 7.75418C256.473 8.78209 256.064 9.76755 255.337 10.4944C254.61 11.2212 253.625 11.6301 252.597 11.6313ZM252.597 4.84635C252.022 4.84635 251.459 5.01689 250.981 5.33641C250.503 5.65593 250.13 6.11007 249.91 6.64141C249.69 7.17274 249.633 7.75741 249.745 8.32147C249.857 8.88554 250.134 9.40366 250.541 9.81033C250.947 10.217 251.465 10.4939 252.03 10.6061C252.594 10.7183 253.178 10.6608 253.71 10.4407C254.241 10.2206 254.695 9.84787 255.015 9.36968C255.334 8.8915 255.505 8.3293 255.505 7.75418C255.504 6.98325 255.197 6.24416 254.652 5.69903C254.107 5.1539 253.368 4.84725 252.597 4.84635V4.84635Z" fill="#3F3D56"/>
<path d="M264.228 11.6313C263.461 11.6313 262.712 11.4039 262.074 10.9779C261.437 10.5519 260.94 9.94633 260.646 9.23788C260.353 8.52944 260.276 7.74988 260.426 6.9978C260.575 6.24571 260.944 5.55488 261.487 5.01265C262.029 4.47043 262.72 4.10117 263.472 3.95157C264.224 3.80198 265.003 3.87876 265.712 4.1722C266.42 4.46565 267.026 4.96259 267.452 5.60018C267.878 6.23777 268.105 6.98736 268.105 7.75418C268.104 8.78209 267.695 9.76755 266.968 10.4944C266.241 11.2212 265.256 11.6301 264.228 11.6313V11.6313ZM264.228 4.84635C263.653 4.84635 263.091 5.01689 262.613 5.33641C262.134 5.65593 261.762 6.11007 261.542 6.64141C261.322 7.17274 261.264 7.75741 261.376 8.32147C261.488 8.88554 261.765 9.40366 262.172 9.81033C262.579 10.217 263.097 10.4939 263.661 10.6061C264.225 10.7183 264.81 10.6608 265.341 10.4407C265.872 10.2206 266.326 9.84787 266.646 9.36968C266.965 8.8915 267.136 8.3293 267.136 7.75418C267.135 6.98325 266.828 6.24416 266.283 5.69903C265.738 5.1539 264.999 4.84725 264.228 4.84635V4.84635Z" fill="#3F3D56"/>
<path d="M275.859 11.6313C275.093 11.6313 274.343 11.4039 273.705 10.9779C273.068 10.5519 272.571 9.94634 272.277 9.23789C271.984 8.52944 271.907 7.74988 272.057 6.9978C272.206 6.24571 272.576 5.55488 273.118 5.01266C273.66 4.47043 274.351 4.10118 275.103 3.95158C275.855 3.80198 276.635 3.87875 277.343 4.1722C278.052 4.46565 278.657 4.96258 279.083 5.60017C279.509 6.23776 279.737 6.98736 279.737 7.75417C279.735 8.78208 279.327 9.76755 278.6 10.4944C277.873 11.2212 276.887 11.6301 275.859 11.6313V11.6313ZM275.859 4.84635C275.284 4.84635 274.722 5.01689 274.244 5.33641C273.766 5.65592 273.393 6.11006 273.173 6.6414C272.953 7.17274 272.895 7.7574 273.007 8.32147C273.12 8.88553 273.397 9.40366 273.803 9.81033C274.21 10.217 274.728 10.4939 275.292 10.6061C275.856 10.7183 276.441 10.6608 276.972 10.4407C277.504 10.2206 277.958 9.84787 278.277 9.36968C278.597 8.89149 278.767 8.32929 278.767 7.75418C278.766 6.98325 278.46 6.24416 277.915 5.69903C277.369 5.1539 276.63 4.84725 275.859 4.84635V4.84635Z" fill="#3F3D56"/>
<path d="M370.716 15.1861H369.747V265.473H370.716V15.1861Z" fill="#3F3D56"/>
<path d="M487.273 138.243H416.031V147.936H487.273V138.243Z" fill="#F2F2F2"/>
<path d="M599.225 138.243H527.983V147.936H599.225V138.243Z" fill="#F2F2F2"/>
<path d="M491.635 143.574H419.424V132.912H491.635V143.574ZM420.393 142.605H490.666V133.881H420.393V142.605Z" fill="#3F3D56"/>
<path d="M487.273 213.362H416.031V223.055H487.273V213.362Z" fill="#F2F2F2"/>
<path d="M491.635 218.693H419.424V208.031H491.635V218.693ZM420.393 217.724H490.666V209H420.393V217.724Z" fill="#3F3D56"/>
<path d="M599.467 174.833H416.274V184.526H599.467V174.833Z" fill="#F2F2F2"/>
<path d="M603.829 181.133H419.666V170.471H603.829V181.133ZM420.636 180.164H602.86V171.441H420.636V180.164Z" fill="#3F3D56"/>
<path d="M603.586 143.574H531.375V132.912H603.586V143.574ZM532.345 142.605H602.617V133.881H532.345V142.605Z" fill="#3F3D56"/>
<path d="M307.502 172.432C299.617 172.432 291.909 170.094 285.352 165.713C278.796 161.332 273.686 155.106 270.669 147.821C267.651 140.536 266.862 132.52 268.4 124.787C269.939 117.053 273.736 109.949 279.311 104.374C284.887 98.7982 291.99 95.0011 299.724 93.4628C307.457 91.9245 315.473 92.7141 322.758 95.7315C330.043 98.749 336.27 103.859 340.65 110.415C345.031 116.971 347.369 124.679 347.369 132.564C347.357 143.134 343.153 153.268 335.679 160.742C328.205 168.216 318.072 172.42 307.502 172.432ZM307.502 93.9049C299.856 93.9049 292.381 96.1722 286.024 100.42C279.666 104.668 274.711 110.706 271.785 117.77C268.859 124.834 268.093 132.607 269.585 140.106C271.077 147.606 274.759 154.494 280.165 159.901C285.572 165.307 292.46 168.989 299.96 170.481C307.459 171.973 315.232 171.207 322.296 168.281C329.36 165.355 335.398 160.4 339.646 154.042C343.894 147.685 346.161 140.21 346.161 132.564C346.149 122.315 342.073 112.488 334.825 105.241C327.578 97.9933 317.751 93.9165 307.502 93.9049Z" fill="#3F3D56"/>
<g clip-path="url(#clip1)">
<rect x="547" y="389" width="57" height="57" fill="url(#paint0_linear)"/>
<path d="M586.185 389C583.146 389.21 579.595 391.155 577.525 393.688C575.637 395.986 574.083 399.399 574.689 402.716C578.009 402.819 581.44 400.827 583.428 398.252C585.287 395.854 586.695 392.463 586.185 389Z" fill="#6C63FF"/>
<path d="M598.194 408.123C595.276 404.465 591.176 402.341 587.304 402.341C582.191 402.341 580.029 404.789 576.477 404.789C572.815 404.789 570.033 402.349 565.612 402.349C561.269 402.349 556.645 405.003 553.713 409.541C549.591 415.932 550.297 427.949 556.976 438.184C559.367 441.846 562.559 445.964 566.734 446C570.45 446.035 571.497 443.616 576.531 443.591C581.564 443.563 582.519 446.032 586.228 445.993C590.407 445.96 593.773 441.397 596.164 437.735C597.877 435.109 598.515 433.787 599.844 430.823C590.179 427.143 588.629 413.399 598.194 408.123Z" fill="url(#paint1_linear)"/>
</g>
<path d="M622.818 449.692H451.87V450.9H622.818V449.692Z" fill="#3F3D56"/>
<path d="M474.504 412.461V427.54C474.51 428.012 474.421 428.482 474.243 428.92C474.065 429.358 473.802 429.756 473.469 430.092C473.136 430.428 472.74 430.694 472.303 430.875C471.866 431.056 471.397 431.148 470.925 431.146C468.933 431.146 467 429.533 467 427.54V412.461C467 410.494 468.927 408.881 470.925 408.881C471.873 408.885 472.781 409.263 473.452 409.934C474.122 410.604 474.501 411.513 474.504 412.461ZM475.911 432.898C475.91 433.404 476.009 433.905 476.202 434.373C476.395 434.841 476.679 435.266 477.037 435.624C477.395 435.982 477.82 436.266 478.288 436.459C478.756 436.652 479.257 436.751 479.763 436.75H482.354L482.393 444.705C482.393 449.507 489.579 449.47 489.579 444.705V436.752H494.421V444.707C494.421 449.485 501.65 449.497 501.65 444.707V436.752H504.28C504.784 436.751 505.283 436.65 505.749 436.455C506.214 436.261 506.636 435.977 506.992 435.619C507.347 435.261 507.629 434.837 507.82 434.37C508.011 433.904 508.109 433.404 508.108 432.9V409.538H475.911V432.898ZM508.194 408.282H475.764C475.764 402.705 479.096 397.867 484.043 395.343L481.565 390.747C481.201 390.109 482.124 389.714 482.436 390.254L484.962 394.889C487.185 393.916 489.585 393.414 492.011 393.414C494.438 393.414 496.837 393.916 499.06 394.889L501.572 390.268C501.898 389.708 502.811 390.125 502.444 390.762L499.965 395.343C504.863 397.867 508.194 402.711 508.194 408.282ZM485.973 401.052C485.973 400.69 485.829 400.342 485.572 400.086C485.316 399.829 484.968 399.685 484.605 399.685C484.252 399.699 483.918 399.849 483.673 400.103C483.428 400.358 483.291 400.698 483.291 401.051C483.291 401.405 483.428 401.745 483.673 401.999C483.918 402.254 484.252 402.404 484.605 402.418C484.967 402.418 485.314 402.275 485.57 402.02C485.826 401.764 485.971 401.418 485.973 401.057V401.052ZM500.735 401.052C500.731 400.786 500.648 400.527 500.497 400.308C500.346 400.089 500.133 399.92 499.885 399.821C499.638 399.723 499.367 399.701 499.107 399.756C498.846 399.812 498.608 399.944 498.423 400.135C498.237 400.326 498.112 400.568 498.064 400.829C498.016 401.091 498.047 401.362 498.152 401.606C498.257 401.851 498.433 402.059 498.656 402.203C498.88 402.348 499.141 402.424 499.407 402.42C499.763 402.412 500.101 402.264 500.35 402.01C500.598 401.755 500.737 401.412 500.735 401.057V401.052ZM513.075 408.877C512.605 408.876 512.139 408.967 511.704 409.147C511.269 409.326 510.874 409.59 510.541 409.922C510.208 410.255 509.945 410.65 509.765 411.085C509.586 411.52 509.494 411.986 509.496 412.457V427.536C509.494 428.007 509.585 428.475 509.764 428.912C509.943 429.348 510.206 429.746 510.538 430.081C510.871 430.415 511.266 430.682 511.701 430.864C512.137 431.046 512.603 431.14 513.075 431.142C515.081 431.142 517 429.529 517 427.536V412.457C516.994 410.457 515.067 408.881 513.075 408.881V408.877Z" fill="#6C63FF"/>
<path d="M474.504 412.461V427.54C474.51 428.012 474.421 428.482 474.243 428.92C474.065 429.358 473.802 429.756 473.469 430.092C473.136 430.428 472.74 430.694 472.303 430.875C471.866 431.056 471.397 431.148 470.925 431.146C468.933 431.146 467 429.533 467 427.54V412.461C467 410.494 468.927 408.881 470.925 408.881C471.873 408.885 472.781 409.263 473.452 409.934C474.122 410.604 474.501 411.513 474.504 412.461ZM475.911 432.898C475.91 433.404 476.009 433.905 476.202 434.373C476.395 434.841 476.679 435.266 477.037 435.624C477.395 435.982 477.82 436.266 478.288 436.459C478.756 436.652 479.257 436.751 479.763 436.75H482.354L482.393 444.705C482.393 449.507 489.579 449.47 489.579 444.705V436.752H494.421V444.707C494.421 449.485 501.65 449.497 501.65 444.707V436.752H504.28C504.784 436.751 505.283 436.65 505.749 436.455C506.214 436.261 506.636 435.977 506.992 435.619C507.347 435.261 507.629 434.837 507.82 434.37C508.011 433.904 508.109 433.404 508.108 432.9V409.538H475.911V432.898ZM508.194 408.282H475.764C475.764 402.705 479.096 397.867 484.043 395.343L481.565 390.747C481.201 390.109 482.124 389.714 482.436 390.254L484.962 394.889C487.185 393.916 489.585 393.414 492.011 393.414C494.438 393.414 496.837 393.916 499.06 394.889L501.572 390.268C501.898 389.708 502.811 390.125 502.444 390.762L499.965 395.343C504.863 397.867 508.194 402.711 508.194 408.282ZM485.973 401.052C485.973 400.69 485.829 400.342 485.572 400.086C485.316 399.829 484.968 399.685 484.605 399.685C484.252 399.699 483.918 399.849 483.673 400.103C483.428 400.358 483.291 400.698 483.291 401.051C483.291 401.405 483.428 401.745 483.673 401.999C483.918 402.254 484.252 402.404 484.605 402.418C484.967 402.418 485.314 402.275 485.57 402.02C485.826 401.764 485.971 401.418 485.973 401.057V401.052ZM500.735 401.052C500.731 400.786 500.648 400.527 500.497 400.308C500.346 400.089 500.133 399.92 499.885 399.821C499.638 399.723 499.367 399.701 499.107 399.756C498.846 399.812 498.608 399.944 498.423 400.135C498.237 400.326 498.112 400.568 498.064 400.829C498.016 401.091 498.047 401.362 498.152 401.606C498.257 401.851 498.433 402.059 498.656 402.203C498.88 402.348 499.141 402.424 499.407 402.42C499.763 402.412 500.101 402.264 500.35 402.01C500.598 401.755 500.737 401.412 500.735 401.057V401.052ZM513.075 408.877C512.605 408.876 512.139 408.967 511.704 409.147C511.269 409.326 510.874 409.59 510.541 409.922C510.208 410.255 509.945 410.65 509.765 411.085C509.586 411.52 509.494 411.986 509.496 412.457V427.536C509.494 428.007 509.585 428.475 509.764 428.912C509.943 429.348 510.206 429.746 510.538 430.081C510.871 430.415 511.266 430.682 511.701 430.864C512.137 431.046 512.603 431.14 513.075 431.142C515.081 431.142 517 429.529 517 427.536V412.457C516.994 410.457 515.067 408.881 513.075 408.881V408.877Z" fill="url(#paint2_linear)"/>
</g>
<defs>
<linearGradient id="paint0_linear" x1="575.5" y1="389" x2="575.5" y2="446" gradientUnits="userSpaceOnUse">
<stop stop-color="white"/>
<stop offset="1" stop-color="white" stop-opacity="0"/>
</linearGradient>
<linearGradient id="paint1_linear" x1="575.5" y1="402.341" x2="575.5" y2="446" gradientUnits="userSpaceOnUse">
<stop stop-color="#7970FD"/>
<stop offset="1" stop-color="#555276"/>
</linearGradient>
<linearGradient id="paint2_linear" x1="492" y1="390" x2="492" y2="448.295" gradientUnits="userSpaceOnUse">
<stop stop-color="#3F3D56"/>
<stop offset="1" stop-color="white" stop-opacity="0"/>
</linearGradient>
<clipPath id="clip0">
<rect width="650" height="456.198" fill="white"/>
</clipPath>
<clipPath id="clip1">
<rect x="547" y="389" width="57" height="57" fill="white"/>
</clipPath>
</defs>
</svg>
